<?xml version="1.0" standalone="no"?>
<!DOCTYPE svg PUBLIC "-//W3C//DTD SVG 20010904//EN"
 "http://www.w3.org/TR/2001/REC-SVG-20010904/DTD/svg10.dtd">
<svg version="1.0" xmlns="http://www.w3.org/2000/svg"
 width="512.000000pt" height="512.000000pt" viewBox="0 0 512.000000 512.000000"
 preserveAspectRatio="xMidYMid meet">

<g transform="translate(0.000000,512.000000) scale(0.100000,-0.100000)"
fill="#dd3f24" stroke="none">
<path d="M378 5064 c-161 -39 -294 -161 -347 -321 l-21 -62 0 -2135 c0 -2119
0 -2134 20 -2200 41 -133 155 -254 287 -308 l58 -23 2145 -3 c1940 -2 2149 -1
2199 14 159 46 273 152 333 310 l23 59 3 2105 c2 1533 0 2124 -9 2173 -32 195
-193 360 -388 397 -35 7 -770 10 -2150 9 -1752 -1 -2105 -3 -2153 -15z m2546
-938 c167 -43 297 -127 428 -275 68 -76 98 -147 129 -293 26 -126 22 -310 -9
-423 -108 -393 -450 -736 -1017 -1018 -71 -35 -169 -80 -217 -98 -84 -33 -88
-35 -88 -65 0 -80 62 -173 144 -216 86 -44 278 -61 441 -38 360 51 795 260
1209 582 160 125 194 121 346 -40 57 -59 109 -117 117 -129 20 -30 20 -101 0
-138 -26 -52 -286 -296 -428 -402 -487 -366 -1020 -563 -1523 -563 -338 0
-581 92 -818 309 -156 143 -271 366 -309 599 -12 71 -12 72 -43 72 -129 0
-475 60 -629 110 -149 48 -196 103 -184 216 10 98 109 264 179 300 53 28 117
15 197 -40 101 -70 168 -88 328 -89 73 -1 135 2 139 6 4 3 13 48 20 99 74 508
253 925 517 1205 184 194 376 304 610 349 112 21 337 12 461 -20z"/>
<path d="M2592 3540 c-268 -96 -484 -485 -518 -929 l-7 -94 64 6 c223 21 558
239 683 445 57 94 79 164 84 269 5 109 -11 172 -64 244 -56 77 -137 97 -242
59z"/>
</g>
</svg>
