<?xml version="1.0" encoding="UTF-8"?>
<svg width="1085px" height="837px" viewBox="0 0 1085 837" version="1.1" xmlns="http://www.w3.org/2000/svg" xmlns:xlink="http://www.w3.org/1999/xlink"><title>en</title><desc>Created with Sketch.</desc><g id="en" stroke="none" stroke-width="1" fill="none" fill-rule="evenodd"><g id="Group"><path d="M194.727081,-7.86720712e-15 L890.272919,7.86720712e-15 C957.983768,-4.5710739e-15 982.537357,7.05010515 1007.29143,20.2887288 C1032.04551,33.5273525 1051.47265,52.9544946 1064.71127,77.7085686 C1077.94989,102.462643 1085,127.016232 1085,194.727081 L1085,642.272919 C1085,709.983768 1077.94989,734.537357 1064.71127,759.291431 C1051.47265,784.045505 1032.04551,803.472648 1007.29143,816.711271 C982.537357,829.949895 957.983768,837 890.272919,837 L194.727081,837 C127.016232,837 102.462643,829.949895 77.7085686,816.711271 C52.9544946,803.472648 33.5273525,784.045505 20.2887288,759.291431 C7.05010515,734.537357 3.0473826e-15,709.983768 -5.24480475e-15,642.272919 L5.24480475e-15,194.727081 C-3.0473826e-15,127.016232 7.05010515,102.462643 20.2887288,77.7085686 C33.5273525,52.9544946 52.9544946,33.5273525 77.7085686,20.2887288 C102.462643,7.05010515 127.016232,4.5710739e-15 194.727081,-7.86720712e-15 Z" id="Rectangle-3" fill="#EEEEEE"/><path d="M194.727081,-1.33226763e-15 L890.272919,-1.33226763e-15 C957.983768,-1.33226763e-15 982.537357,7.05010515 1007.29143,20.2887288 C1032.04551,33.5273525 1051.47265,52.9544946 1064.71127,77.7085686 C1067.3784,82.6956683 1069.79435,87.6746306 1071.95207,93 L13.0479315,93 C15.2056512,87.6746306 17.6215987,82.6956683 20.2887288,77.7085686 C33.5273525,52.9544946 52.9544946,33.5273525 77.7085686,20.2887288 C102.462643,7.05010515 127.016232,-1.33226763e-15 194.727081,-1.33226763e-15 Z" id="Path" fill="#FF4B4B"/><path d="M1084.95878,186 C1084.98623,188.82725 1085,191.73503 1085,194.727081 L1085,279 L-7.10542736e-15,279 L-7.10542736e-15,194.727081 C-7.10542736e-15,191.73503 0.0137662878,188.82725 0.0412245218,186 L1084.95878,186 Z" id="Path" fill="#FF4B4B"/><polygon id="Path" fill="#FF4B4B" points="1085 372 1085 465 3.02442659e-14 465 -7.10542736e-15 372"/><path d="M1085,642.272919 C1085,645.26497 1084.98623,648.17275 1084.95878,651 L0.0412245218,651 C0.0137662878,648.17275 -7.10542736e-15,645.26497 -7.10542736e-15,642.272919 L-7.10542736e-15,558 L1085,558 L1085,642.272919 Z" id="Path" fill="#FF4B4B"/><path d="M1071.95207,744 C1069.79435,749.325369 1067.3784,754.304332 1064.71127,759.291431 C1051.47265,784.045505 1032.04551,803.472648 1007.29143,816.711271 C982.537357,829.949895 957.983768,837 890.272919,837 L194.727081,837 C127.016232,837 102.462643,829.949895 77.7085686,816.711271 C52.9544946,803.472648 33.5273525,784.045505 20.2887288,759.291431 C17.6215987,754.304332 15.2056512,749.325369 13.0479315,744 L1071.95207,744 Z" id="Path" fill="#FF4B4B"/><path d="M194.727081,0 L542.5,0 L542.5,372 L0,372 L0,194.727081 C0,127.016232 7.05010515,102.462643 20.2887288,77.7085686 C33.5273525,52.9544946 52.9544946,33.5273525 77.7085686,20.2887288 C102.462643,7.05010515 127.016232,0 194.727081,0 Z" id="Path" fill="#1CB0F6"/><path d="M430.994672,148.829994 L411.223321,159.224409 C405.015109,162.488259 397.336485,160.101382 394.072635,153.89317 C392.772952,151.421027 392.324464,148.589384 392.796601,145.836613 L396.572593,123.820891 C396.931922,121.725846 396.237338,119.588136 394.715198,118.104417 L378.71984,102.512796 C373.697291,97.6170202 373.59452,89.5766292 378.490296,84.5540799 C380.439819,82.5540744 382.994281,81.2525111 385.758221,80.8508872 L407.863262,77.6388366 C409.966807,77.3331737 411.785252,76.0119965 412.725986,74.1058615 L422.611661,54.0752957 C425.715767,47.7856896 433.330875,45.2033317 439.620481,48.3074379 C442.125036,49.5435093 444.152268,51.5707416 445.388339,54.0752957 L455.274014,74.1058615 C456.214748,76.0119965 458.033193,77.3331737 460.136738,77.6388366 L482.241779,80.8508872 C489.182772,81.8594724 493.991938,88.3038784 492.983353,95.2448709 C492.581729,98.0088105 491.280165,100.563272 489.28016,102.512796 L473.284802,118.104417 C471.762662,119.588136 471.068078,121.725846 471.427407,123.820891 L475.203399,145.836613 C476.389062,152.749559 471.746181,159.314779 464.833235,160.500442 C462.080464,160.972579 459.248821,160.524091 456.776679,159.224409 L437.005328,148.829994 C435.12386,147.840848 432.87614,147.840848 430.994672,148.829994 Z" id="Star-Copy" fill="#FFFFFF" fill-rule="nonzero"/><path d="M430.994672,303.829994 L411.223321,314.224409 C405.015109,317.488259 397.336485,315.101382 394.072635,308.89317 C392.772952,306.421027 392.324464,303.589384 392.796601,300.836613 L396.572593,278.820891 C396.931922,276.725846 396.237338,274.588136 394.715198,273.104417 L378.71984,257.512796 C373.697291,252.61702 373.59452,244.576629 378.490296,239.55408 C380.439819,237.554074 382.994281,236.252511 385.758221,235.850887 L407.863262,232.638837 C409.966807,232.333174 411.785252,231.011996 412.725986,229.105862 L422.611661,209.075296 C425.715767,202.78569 433.330875,200.203332 439.620481,203.307438 C442.125036,204.543509 444.152268,206.570742 445.388339,209.075296 L455.274014,229.105862 C456.214748,231.011996 458.033193,232.333174 460.136738,232.638837 L482.241779,235.850887 C489.182772,236.859472 493.991938,243.303878 492.983353,250.244871 C492.581729,253.00881 491.280165,255.563272 489.28016,257.512796 L473.284802,273.104417 C471.762662,274.588136 471.068078,276.725846 471.427407,278.820891 L475.203399,300.836613 C476.389062,307.749559 471.746181,314.314779 464.833235,315.500442 C462.080464,315.972579 459.248821,315.524091 456.776679,314.224409 L437.005328,303.829994 C435.12386,302.840848 432.87614,302.840848 430.994672,303.829994 Z" id="Star-Copy-4" fill="#FFFFFF" fill-rule="nonzero"/><path d="M275.994672,148.829994 L256.223321,159.224409 C250.015109,162.488259 242.336485,160.101382 239.072635,153.89317 C237.772952,151.421027 237.324464,148.589384 237.796601,145.836613 L241.572593,123.820891 C241.931922,121.725846 241.237338,119.588136 239.715198,118.104417 L223.71984,102.512796 C218.697291,97.6170202 218.59452,89.5766292 223.490296,84.5540799 C225.439819,82.5540744 227.994281,81.2525111 230.758221,80.8508872 L252.863262,77.6388366 C254.966807,77.3331737 256.785252,76.0119965 257.725986,74.1058615 L267.611661,54.0752957 C270.715767,47.7856896 278.330875,45.2033317 284.620481,48.3074379 C287.125036,49.5435093 289.152268,51.5707416 290.388339,54.0752957 L300.274014,74.1058615 C301.214748,76.0119965 303.033193,77.3331737 305.136738,77.6388366 L327.241779,80.8508872 C334.182772,81.8594724 338.991938,88.3038784 337.983353,95.2448709 C337.581729,98.0088105 336.280165,100.563272 334.28016,102.512796 L318.284802,118.104417 C316.762662,119.588136 316.068078,121.725846 316.427407,123.820891 L320.203399,145.836613 C321.389062,152.749559 316.746181,159.314779 309.833235,160.500442 C307.080464,160.972579 304.248821,160.524091 301.776679,159.224409 L282.005328,148.829994 C280.12386,147.840848 277.87614,147.840848 275.994672,148.829994 Z" id="Star-Copy-2" fill="#FFFFFF" fill-rule="nonzero"/><path d="M275.994672,303.829994 L256.223321,314.224409 C250.015109,317.488259 242.336485,315.101382 239.072635,308.89317 C237.772952,306.421027 237.324464,303.589384 237.796601,300.836613 L241.572593,278.820891 C241.931922,276.725846 241.237338,274.588136 239.715198,273.104417 L223.71984,257.512796 C218.697291,252.61702 218.59452,244.576629 223.490296,239.55408 C225.439819,237.554074 227.994281,236.252511 230.758221,235.850887 L252.863262,232.638837 C254.966807,232.333174 256.785252,231.011996 257.725986,229.105862 L267.611661,209.075296 C270.715767,202.78569 278.330875,200.203332 284.620481,203.307438 C287.125036,204.543509 289.152268,206.570742 290.388339,209.075296 L300.274014,229.105862 C301.214748,231.011996 303.033193,232.333174 305.136738,232.638837 L327.241779,235.850887 C334.182772,236.859472 338.991938,243.303878 337.983353,250.244871 C337.581729,253.00881 336.280165,255.563272 334.28016,257.512796 L318.284802,273.104417 C316.762662,274.588136 316.068078,276.725846 316.427407,278.820891 L320.203399,300.836613 C321.389062,307.749559 316.746181,314.314779 309.833235,315.500442 C307.080464,315.972579 304.248821,315.524091 301.776679,314.224409 L282.005328,303.829994 C280.12386,302.840848 277.87614,302.840848 275.994672,303.829994 Z" id="Star-Copy-5" fill="#FFFFFF" fill-rule="nonzero"/><path d="M120.994672,148.829994 L101.223321,159.224409 C95.0151091,162.488259 87.3364851,160.101382 84.0726347,153.89317 C82.7729524,151.421027 82.3244642,148.589384 82.7966015,145.836613 L86.5725934,123.820891 C86.9319217,121.725846 86.2373378,119.588136 84.7151985,118.104417 L68.71984,102.512796 C63.6972907,97.6170202 63.5945203,89.5766292 68.4902959,84.5540799 C70.4398194,82.5540744 72.9942811,81.2525111 75.7582207,80.8508872 L97.8632625,77.6388366 C99.9668073,77.3331737 101.785252,76.0119965 102.725986,74.1058615 L112.611661,54.0752957 C115.715767,47.7856896 123.330875,45.2033317 129.620481,48.3074379 C132.125036,49.5435093 134.152268,51.5707416 135.388339,54.0752957 L145.274014,74.1058615 C146.214748,76.0119965 148.033193,77.3331737 150.136738,77.6388366 L172.241779,80.8508872 C179.182772,81.8594724 183.991938,88.3038784 182.983353,95.2448709 C182.581729,98.0088105 181.280165,100.563272 179.28016,102.512796 L163.284802,118.104417 C161.762662,119.588136 161.068078,121.725846 161.427407,123.820891 L165.203399,145.836613 C166.389062,152.749559 161.746181,159.314779 154.833235,160.500442 C152.080464,160.972579 149.248821,160.524091 146.776679,159.224409 L127.005328,148.829994 C125.12386,147.840848 122.87614,147.840848 120.994672,148.829994 Z" id="Star-Copy-3" fill="#FFFFFF" fill-rule="nonzero"/><path d="M120.994672,303.829994 L101.223321,314.224409 C95.0151091,317.488259 87.3364851,315.101382 84.0726347,308.89317 C82.7729524,306.421027 82.3244642,303.589384 82.7966015,300.836613 L86.5725934,278.820891 C86.9319217,276.725846 86.2373378,274.588136 84.7151985,273.104417 L68.71984,257.512796 C63.6972907,252.61702 63.5945203,244.576629 68.4902959,239.55408 C70.4398194,237.554074 72.9942811,236.252511 75.7582207,235.850887 L97.8632625,232.638837 C99.9668073,232.333174 101.785252,231.011996 102.725986,229.105862 L112.611661,209.075296 C115.715767,202.78569 123.330875,200.203332 129.620481,203.307438 C132.125036,204.543509 134.152268,206.570742 135.388339,209.075296 L145.274014,229.105862 C146.214748,231.011996 148.033193,232.333174 150.136738,232.638837 L172.241779,235.850887 C179.182772,236.859472 183.991938,243.303878 182.983353,250.244871 C182.581729,253.00881 181.280165,255.563272 179.28016,257.512796 L163.284802,273.104417 C161.762662,274.588136 161.068078,276.725846 161.427407,278.820891 L165.203399,300.836613 C166.389062,307.749559 161.746181,314.314779 154.833235,315.500442 C152.080464,315.972579 149.248821,315.524091 146.776679,314.224409 L127.005328,303.829994 C125.12386,302.840848 122.87614,302.840848 120.994672,303.829994 Z" id="Star-Copy-6" fill="#FFFFFF" fill-rule="nonzero"/></g></g></svg>